<svg width="45" height="45" viewBox="0 0 45 45" fill="none" xmlns="http://www.w3.org/2000/svg">
<circle cx="22.5" cy="22.5" r="22.5" fill="url(#paint0_linear)"/>
<path d="M27.375 4.5H34.125V23.625C34.125 26.25 33.525 28.1625 32.325 29.3625C31.15 30.5375 29.25 31.125 26.625 31.125H18C15.375 31.125 13.4625 30.5375 12.2625 29.3625C11.0875 28.1625 10.5 26.25 10.5 23.625V4.5H17.25V23.625C17.25 25.125 18 25.875 19.5 25.875H25.125C26.625 25.875 27.375 25.125 27.375 23.625V4.5Z" fill="white"/>
<path d="M7.18874 36.6188C9.24374 36.7313 10.635 36.7875 11.3625 36.7875C11.535 36.7875 11.67 36.7388 11.7675 36.6413C11.8725 36.5363 11.925 36.3975 11.925 36.225V35.2125H9.33749C8.54999 35.2125 7.97624 35.0363 7.61624 34.6838C7.26374 34.3238 7.08749 33.75 7.08749 32.9625V32.625C7.08749 31.8375 7.26374 31.2675 7.61624 30.915C7.97624 30.555 8.54999 30.375 9.33749 30.375H13.2862V31.95H9.78749C9.33749 31.95 9.11249 32.175 9.11249 32.625V32.85C9.11249 33.3 9.33749 33.525 9.78749 33.525H11.8125C12.5475 33.525 13.0875 33.6975 13.4325 34.0425C13.7775 34.3875 13.95 34.9275 13.95 35.6625V36.225C13.95 36.96 13.7775 37.5 13.4325 37.845C13.0875 38.19 12.5475 38.3625 11.8125 38.3625C11.43 38.3625 11.025 38.355 10.5975 38.34L9.56249 38.295C8.79749 38.2575 8.00624 38.205 7.18874 38.1375V36.6188Z" fill="black"/>
<path d="M20.9241 36.5625C20.9241 37.125 20.7629 37.5675 20.4404 37.89C20.1254 38.205 19.6866 38.3625 19.1241 38.3625H16.5366C15.9741 38.3625 15.5316 38.205 15.2091 37.89C14.8941 37.5675 14.7366 37.125 14.7366 36.5625V33.975C14.7366 33.4125 14.8941 32.9738 15.2091 32.6588C15.5316 32.3363 15.9741 32.175 16.5366 32.175H19.1241C19.6866 32.175 20.1254 32.3363 20.4404 32.6588C20.7629 32.9738 20.9241 33.4125 20.9241 33.975V36.5625ZM18.9554 34.1438C18.9554 33.8438 18.8054 33.6938 18.5054 33.6938H17.1554C16.8554 33.6938 16.7054 33.8438 16.7054 34.1438V36.3938C16.7054 36.6938 16.8554 36.8438 17.1554 36.8438H18.5054C18.8054 36.8438 18.9554 36.6938 18.9554 36.3938V34.1438Z" fill="black"/>
<path d="M25.929 34.0875C25.929 33.975 25.8915 33.8813 25.8165 33.8063C25.7415 33.7313 25.6478 33.6938 25.5353 33.6938H25.254C24.939 33.6938 24.6653 33.7088 24.4328 33.7388C24.2078 33.7688 24.0315 33.7913 23.904 33.8063V36.7313H25.479C25.779 36.7313 25.929 36.5813 25.929 36.2813V34.0875ZM23.904 32.4C24.6315 32.25 25.269 32.175 25.8165 32.175H26.2103C26.7203 32.175 27.129 32.3288 27.4365 32.6363C27.744 32.9438 27.8978 33.3525 27.8978 33.8625V36.45C27.8978 37.0125 27.7365 37.455 27.414 37.7775C27.099 38.0925 26.6603 38.25 26.0978 38.25H21.9353V30.375H23.904V32.4Z" fill="black"/>
<path d="M31.2179 33.5813C30.9179 33.5813 30.7679 33.7313 30.7679 34.0313V34.65H32.6804V34.0313C32.6804 33.7313 32.5304 33.5813 32.2304 33.5813H31.2179ZM34.4241 38.1375C32.9766 38.2875 31.6641 38.3625 30.4866 38.3625C29.9766 38.3625 29.5679 38.2088 29.2604 37.9013C28.9529 37.5938 28.7991 37.185 28.7991 36.675V33.975C28.7991 33.4125 28.9566 32.9738 29.2716 32.6588C29.5941 32.3363 30.0366 32.175 30.5991 32.175H32.8491C33.4116 32.175 33.8504 32.3363 34.1654 32.6588C34.4879 32.9738 34.6491 33.4125 34.6491 33.975V36.0563H30.7679V36.5063C30.7679 36.6188 30.8054 36.7125 30.8804 36.7875C30.9554 36.8625 31.0491 36.9 31.1616 36.9C31.9041 36.9 32.9916 36.8438 34.4241 36.7313V38.1375Z" fill="black"/>
<path d="M39.0885 33.9188C38.616 33.9188 38.1285 34.0313 37.626 34.2563V38.25H35.6572V32.2875H37.401L37.5135 33.0188C38.1585 32.4563 38.8335 32.175 39.5385 32.175H40.0447V33.9188H39.0885Z" fill="black"/>
<defs>
<linearGradient id="paint0_linear" x1="22.5" y1="0" x2="22.5" y2="45" gradientUnits="userSpaceOnUse">
<stop stop-color="#FF6651"/>
<stop offset="1" stop-color="#FF7E35" stop-opacity="0.86"/>
</linearGradient>
</defs>
</svg>
