<svg width="411" height="823" viewBox="0 0 411 823" fill="none" xmlns="http://www.w3.org/2000/svg">
<rect width="411" height="823" fill="#434343"/>
<rect x="156" y="361" width="100" height="100" fill="url(#paint0_linear)"/>
<path d="M198.5 379.333H213.5V421.833C213.5 427.667 212.167 431.917 209.5 434.583C206.889 437.194 202.667 438.5 196.833 438.5H177.667C171.833 438.5 167.583 437.194 164.917 434.583C162.306 431.917 161 427.667 161 421.833V379.333H176V421.833C176 425.167 177.667 426.833 181 426.833H193.5C196.833 426.833 198.5 425.167 198.5 421.833V379.333Z" fill="white"/>
<path d="M161.975 454.042C166.542 454.292 169.633 454.417 171.25 454.417C171.633 454.417 171.933 454.308 172.15 454.092C172.383 453.858 172.5 453.55 172.5 453.167V450.917H166.75C165 450.917 163.725 450.525 162.925 449.742C162.142 448.942 161.75 447.667 161.75 445.917V445.167C161.75 443.417 162.142 442.15 162.925 441.367C163.725 440.567 165 440.167 166.75 440.167H175.525V443.667H167.75C166.75 443.667 166.25 444.167 166.25 445.167V445.667C166.25 446.667 166.75 447.167 167.75 447.167H172.25C173.883 447.167 175.083 447.55 175.85 448.317C176.617 449.083 177 450.283 177 451.917V453.167C177 454.8 176.617 456 175.85 456.767C175.083 457.533 173.883 457.917 172.25 457.917C171.4 457.917 170.5 457.9 169.55 457.867L167.25 457.767C165.55 457.683 163.792 457.567 161.975 457.417V454.042Z" fill="black"/>
<path d="M192.498 453.917C192.498 455.167 192.14 456.15 191.423 456.867C190.723 457.567 189.748 457.917 188.498 457.917H182.748C181.498 457.917 180.515 457.567 179.798 456.867C179.098 456.15 178.748 455.167 178.748 453.917V448.167C178.748 446.917 179.098 445.942 179.798 445.242C180.515 444.525 181.498 444.167 182.748 444.167H188.498C189.748 444.167 190.723 444.525 191.423 445.242C192.14 445.942 192.498 446.917 192.498 448.167V453.917ZM188.123 448.542C188.123 447.875 187.79 447.542 187.123 447.542H184.123C183.456 447.542 183.123 447.875 183.123 448.542V453.542C183.123 454.208 183.456 454.542 184.123 454.542H187.123C187.79 454.542 188.123 454.208 188.123 453.542V448.542Z" fill="black"/>
<path d="M203.62 448.417C203.62 448.167 203.537 447.958 203.37 447.792C203.203 447.625 202.995 447.542 202.745 447.542H202.12C201.42 447.542 200.812 447.575 200.295 447.642C199.795 447.708 199.403 447.758 199.12 447.792V454.292H202.62C203.287 454.292 203.62 453.958 203.62 453.292V448.417ZM199.12 444.667C200.737 444.333 202.153 444.167 203.37 444.167H204.245C205.378 444.167 206.287 444.508 206.97 445.192C207.653 445.875 207.995 446.783 207.995 447.917V453.667C207.995 454.917 207.637 455.9 206.92 456.617C206.22 457.317 205.245 457.667 203.995 457.667H194.745V440.167H199.12V444.667Z" fill="black"/>
<path d="M215.373 447.292C214.706 447.292 214.373 447.625 214.373 448.292V449.667H218.623V448.292C218.623 447.625 218.29 447.292 217.623 447.292H215.373ZM222.498 457.417C219.281 457.75 216.365 457.917 213.748 457.917C212.615 457.917 211.706 457.575 211.023 456.892C210.34 456.208 209.998 455.3 209.998 454.167V448.167C209.998 446.917 210.348 445.942 211.048 445.242C211.765 444.525 212.748 444.167 213.998 444.167H218.998C220.248 444.167 221.223 444.525 221.923 445.242C222.64 445.942 222.998 446.917 222.998 448.167V452.792H214.373V453.792C214.373 454.042 214.456 454.25 214.623 454.417C214.79 454.583 214.998 454.667 215.248 454.667C216.898 454.667 219.315 454.542 222.498 454.292V457.417Z" fill="black"/>
<path d="M232.863 448.042C231.813 448.042 230.73 448.292 229.613 448.792V457.667H225.238V444.417H229.113L229.363 446.042C230.797 444.792 232.297 444.167 233.863 444.167H234.988V448.042H232.863Z" fill="black"/>
<defs>
<linearGradient id="paint0_linear" x1="206" y1="361" x2="206" y2="461" gradientUnits="userSpaceOnUse">
<stop stop-color="#FF6651"/>
<stop offset="1" stop-color="#FF7E35" stop-opacity="0.86"/>
</linearGradient>
</defs>
</svg>
