<svg width="145" height="145" viewBox="0 0 145 145" fill="none" xmlns="http://www.w3.org/2000/svg">
<path d="M18.3584 86.8651L34.2534 34.2534L86.8651 18.3584L125.418 56.911L110.747 110.747L56.911 125.418L18.3584 86.8651Z" fill="url(#paint0_linear)"/>
<path d="M82.6614 34.2502H96.3119V72.9266C96.3119 78.2351 95.0986 82.1028 92.6718 84.5295C90.2956 86.9057 86.4532 88.0938 81.1447 88.0938H63.7024C58.3939 88.0938 54.5262 86.9057 52.0995 84.5295C49.7233 82.1028 48.5352 78.2351 48.5352 72.9266V34.2502H62.1857V72.9266C62.1857 75.9601 63.7024 77.4768 66.7358 77.4768H78.1113C81.1447 77.4768 82.6614 75.9601 82.6614 72.9266V34.2502Z" fill="white"/>
<path d="M44.8131 103.974C48.6919 104.186 51.3178 104.292 52.691 104.292C53.0166 104.292 53.2714 104.2 53.4554 104.016C53.6536 103.818 53.7527 103.556 53.7527 103.231V101.32H48.8688C47.3824 101.32 46.2995 100.987 45.62 100.322C44.9547 99.6422 44.622 98.5592 44.622 97.0729V96.4358C44.622 94.9494 44.9547 93.8736 45.62 93.2082C46.2995 92.5288 47.3824 92.189 48.8688 92.189H56.322V95.1618H49.7182C48.8688 95.1618 48.4442 95.5865 48.4442 96.4358V96.8605C48.4442 97.7099 48.8688 98.1346 49.7182 98.1346H53.5403C54.9276 98.1346 55.9469 98.4602 56.5981 99.1113C57.2492 99.7625 57.5748 100.782 57.5748 102.169V103.231C57.5748 104.618 57.2492 105.637 56.5981 106.288C55.9469 106.94 54.9276 107.265 53.5403 107.265C52.8184 107.265 52.054 107.251 51.2471 107.223L49.2935 107.138C47.8496 107.067 46.3561 106.968 44.8131 106.841V103.974Z" fill="black"/>
<path d="M70.7383 103.868C70.7383 104.929 70.434 105.765 69.8253 106.373C69.2307 106.968 68.4026 107.265 67.3409 107.265H62.457C61.3953 107.265 60.5601 106.968 59.9514 106.373C59.3568 105.765 59.0596 104.929 59.0596 103.868V98.9839C59.0596 97.9222 59.3568 97.0941 59.9514 96.4995C60.5601 95.8908 61.3953 95.5865 62.457 95.5865H67.3409C68.4026 95.5865 69.2307 95.8908 69.8253 96.4995C70.434 97.0941 70.7383 97.9222 70.7383 98.9839V103.868ZM67.0224 99.3024C67.0224 98.7362 66.7392 98.4531 66.173 98.4531H63.6249C63.0586 98.4531 62.7755 98.7362 62.7755 99.3024V103.549C62.7755 104.116 63.0586 104.399 63.6249 104.399H66.173C66.7392 104.399 67.0224 104.116 67.0224 103.549V99.3024Z" fill="black"/>
<path d="M80.185 99.1963C80.185 98.9839 80.1142 98.807 79.9727 98.6654C79.8311 98.5239 79.6542 98.4531 79.4418 98.4531H78.911C78.3164 98.4531 77.7997 98.4814 77.3609 98.538C76.9362 98.5946 76.6035 98.6371 76.3629 98.6654V104.186H79.3357C79.9019 104.186 80.185 103.903 80.185 103.337V99.1963ZM76.3629 96.0112C77.736 95.728 78.9393 95.5865 79.9727 95.5865H80.7159C81.6785 95.5865 82.45 95.8767 83.0304 96.4571C83.6108 97.0375 83.901 97.809 83.901 98.7716V103.655C83.901 104.717 83.5966 105.552 82.9879 106.161C82.3934 106.756 81.5652 107.053 80.5035 107.053H72.6469V92.189H76.3629V96.0112Z" fill="black"/>
<path d="M90.1675 98.2407C89.6013 98.2407 89.3182 98.5239 89.3182 99.0901V100.258H92.928V99.0901C92.928 98.5239 92.6449 98.2407 92.0786 98.2407H90.1675ZM96.2193 106.841C93.4871 107.124 91.0098 107.265 88.7873 107.265C87.8247 107.265 87.0532 106.975 86.4728 106.395C85.8924 105.814 85.6022 105.043 85.6022 104.08V98.9839C85.6022 97.9222 85.8995 97.0941 86.494 96.4995C87.1028 95.8908 87.938 95.5865 88.9997 95.5865H93.2465C94.3082 95.5865 95.1363 95.8908 95.7309 96.4995C96.3396 97.0941 96.6439 97.9222 96.6439 98.9839V102.912H89.3182V103.762C89.3182 103.974 89.389 104.151 89.5305 104.292C89.6721 104.434 89.849 104.505 90.0614 104.505C91.4628 104.505 93.5155 104.399 96.2193 104.186V106.841Z" fill="black"/>
<path d="M105.023 98.8778C104.131 98.8778 103.211 99.0901 102.263 99.5148V107.053H98.5467V95.7988H101.838L102.05 97.179C103.268 96.1173 104.542 95.5865 105.873 95.5865H106.828V98.8778H105.023Z" fill="black"/>
<defs>
<linearGradient id="paint0_linear" x1="34.2534" y1="34.2534" x2="110.747" y2="110.747" gradientUnits="userSpaceOnUse">
<stop stop-color="#FF6651"/>
<stop offset="1" stop-color="#FF7E35" stop-opacity="0.86"/>
</linearGradient>
</defs>
</svg>
