<svg xmlns="http://www.w3.org/2000/svg" xmlns:xlink="http://www.w3.org/1999/xlink" version="1.1" x="0px" y="0px" viewBox="0 0 211.329 246.47749999999996" style="enable-background:new 0 0 211.329 237.182;" xml:space="preserve"><g><path d="M205.707,64.343c-41.9-13.028-79.465-13.589-79.91-13.612c-0.031,0-0.062,0.003-0.093,0.003   c-0.237-0.021-0.478-0.036-0.721-0.036H86.348c-0.247,0-0.491,0.015-0.731,0.037c-0.027,0-0.055-0.003-0.082-0.003   c-0.445,0.023-38.01,0.582-79.91,13.61c-4.219,1.313-6.576,5.798-5.26,10.018C1.432,77.785,4.592,79.982,8,79.982   c0.789,0,1.59-0.117,2.383-0.364c19.71-6.143,38.682-9.387,52.656-11.071c6.369-0.769,11.684-1.213,15.581-1.471v46.809   c2.142-4.002,6.077-6.98,10.904-7.676c8.058-1.16,15.559,4.451,16.717,12.508l7.711,53.551c0.808,5.608-1.672,10.939-5.969,14.057   v38.494c0,6.83,5.537,12.363,12.363,12.363c6.828,0,12.365-5.533,12.365-12.363v-98v-18.939V67.074   c12.456,0.826,39.546,3.595,68.235,12.543c0.793,0.247,1.595,0.364,2.383,0.364c3.41,0,6.568-2.197,7.635-5.623   C212.28,70.141,209.924,65.656,205.707,64.343z"/><circle cx="105.666" cy="22.5" r="22.5"/><path d="M111.577,172.607l-7.711-53.547c-0.974-6.762-7.243-11.449-14.001-10.477c-6.757,0.973-11.448,7.238-10.476,14l7.71,53.549   c0.975,6.76,7.243,11.447,13.999,10.475C107.858,185.635,112.55,179.369,111.577,172.607z"/></g></svg>