<svg xmlns:dc="http://purl.org/dc/elements/1.1/" xmlns:cc="http://creativecommons.org/ns#" xmlns:rdf="http://www.w3.org/1999/02/22-rdf-syntax-ns#" xmlns:svg="http://www.w3.org/2000/svg" xmlns="http://www.w3.org/2000/svg" xmlns:sodipodi="http://sodipodi.sourceforge.net/DTD/sodipodi-0.dtd" xmlns:inkscape="http://www.inkscape.org/namespaces/inkscape" version="1.1" x="0px" y="0px" viewBox="0 0 100 125"><g transform="translate(0,-952.36218)"><path style="text-indent:0;text-transform:none;direction:ltr;block-progression:tb;baseline-shift:baseline;color:#000000;enable-background:accumulate;" d="m 39.069124,1016.6898 c 0,0 -7.887713,0.081 -14.595214,5.6371 -6.707502,5.5565 -11.47366,16.7457 -7.03096,35.0436 a 4.5233001,4.5233001 0 1 0 8.787881,-2.1331 c -3.939604,-16.2259 -0.0401,-22.5863 4.014421,-25.945 4.054524,-3.3587 9.023448,-3.5596 9.023448,-3.5596 a 4.5233001,4.5233001 0 1 0 -0.199576,-9.043 z" fill="#000000" fill-opacity="1" fill-rule="nonzero" stroke="none" marker="none" visibility="visible" display="inline" overflow="visible"/><path d="m 49.895297,992.79614 c -6.00255,0 -10.868706,4.8662 -10.868706,10.86876 0,6.0026 4.866156,10.8688 10.868706,10.8688 6.002552,0 10.868708,-4.8662 10.868708,-10.8688 0,-6.00256 -4.866156,-10.86876 -10.868708,-10.86876 z m 7.439928,8.13036 c 0,0 1.308694,2.3523 1.308694,3.2357 0,0.8835 -0.425249,1.5672 -1.308694,1.5672 -0.883444,0 -1.400303,-0.6837 -1.400303,-1.5672 0,-0.8834 1.400303,-3.2357 1.400303,-3.2357 z" style="text-indent:0;text-transform:none;direction:ltr;block-progression:tb;baseline-shift:baseline;color:#000000;enable-background:accumulate;" fill="#000000" fill-opacity="1" fill-rule="nonzero" stroke="none" marker="none" visibility="visible" display="inline" overflow="visible"/><path style="text-indent:0;text-transform:none;direction:ltr;block-progression:tb;baseline-shift:baseline;color:#000000;enable-background:accumulate;" d="m 32.350704,1022.6316 c 0,0 -0.03967,-6.1091 8.773005,-6.1091 2.924334,0 8.773003,0 8.773003,0 0,0 5.84867,0 8.773005,0 8.822045,0 8.773003,6.1091 8.773003,6.1091 l 0,28.9829 -35.092016,0 z" fill="#000000" fill-opacity="1" fill-rule="evenodd" stroke="none" marker="none" visibility="visible" display="inline" overflow="visible"/><path style="text-indent:0;text-transform:none;direction:ltr;block-progression:tb;baseline-shift:baseline;color:#000000;enable-background:accumulate;" d="m 66.103478,997.478 a 4.5233001,4.5233001 0 0 0 -2.316389,8.4869 c 8.667036,4.9221 13.550221,8.9232 15.560376,10.9146 -0.05847,0.013 -0.09918,0.029 -0.160316,0.043 -2.820094,0.5722 -7.785669,0.5806 -11.807694,0.3338 -4.022026,-0.247 -7.1422,-0.6675 -7.1422,-0.6675 a 4.5233001,4.5233001 0 1 0 -1.217085,8.9613 c 0,0 3.433931,0.4679 7.803089,0.7361 4.369158,0.2682 9.631164,0.419 14.163345,-0.5006 2.266091,-0.4598 4.513191,-1.0331 6.507482,-3.1146 0.997146,-1.0409 1.814004,-2.622 1.94995,-4.2664 0.135958,-1.6443 -0.318567,-3.1627 -0.984788,-4.4495 -2.664865,-5.1476 -8.450982,-9.181 -20.202969,-15.85498 A 4.5233001,4.5233001 0 0 0 66.103478,997.478 z" fill="#000000" fill-opacity="1" fill-rule="evenodd" stroke="none" marker="none" visibility="visible" display="inline" overflow="visible"/><path style="text-indent:0;text-transform:none;direction:ltr;block-progression:tb;baseline-shift:baseline;color:#000000;enable-background:accumulate;" d="m 16.150614,952.90066 0,1.22686 0,33.75457 0,1.21048 1.210542,0.013 7.793275,0.0955 8.081188,12.02373 2.241139,3.3338 0,-4.0176 0,-11.43481 49.409756,0 1.223628,0 0,-1.22356 0,-33.75458 0,-1.22686 -1.223628,0 -67.509,0 -1.2269,0 z m 2.45053,2.45054 65.058468,0 0,31.30721 -49.406484,0 -1.223629,0 0,1.22368 0,8.64061 -6.196668,-9.22298 -0.359891,-0.53334 -0.644531,-0.0118 -7.227265,-0.0849 0,-31.3203 z" fill="#000000" fill-opacity="1" stroke="none" marker="none" visibility="visible" display="inline" overflow="visible"/><path style="text-indent:0;text-transform:none;direction:ltr;block-progression:tb;baseline-shift:baseline;color:#000000;enable-background:accumulate;" d="m 40.659187,958.89118 c -5.921551,-0.0271 -11.521685,5.71058 -10.194729,11.82733 0.0015,0.0118 0.005,0.0189 0.0066,0.0295 0.0014,0.0118 0.0019,0.0177 0.0033,0.0259 0.424514,2.6152 1.719077,4.96473 3.536747,6.8085 -3.10625,-0.0625 -6.53919,-0.52238 -8.761709,-2.637 -4.076864,-3.87919 -1.317161,-12.2163 4.122387,-13.71849 l -0.484211,-1.74382 c -6.888741,1.90235 -9.771386,11.5065 -4.923963,16.75788 0,0 0.04907,0.0601 0.07852,0.0849 0.02885,0.0248 0.09488,0.0625 0.09488,0.0625 3.513174,2.30168 7.82027,3.34443 11.997456,2.9576 1.841294,1.24112 3.978008,2.0452 6.203211,2.25099 4.470586,1.20447 9.468768,1.1011 13.868888,-0.52674 4.767377,0.92855 9.746498,0.2243 14.287672,-1.07316 0,0 0.04641,-0.0118 0.0687,-0.02 0.02145,-0.0118 0.06216,-0.0295 0.06216,-0.0295 0.64385,-0.30503 1.181533,-0.77343 1.802727,-1.10263 0.234312,-0.12411 0.528914,-0.0401 0.79176,-0.0719 2.580678,-0.31623 5.090291,-1.26623 7.246895,-2.33609 l -0.804848,-1.62278 c -1.551082,0.76955 -3.280348,1.4567 -5.025386,1.86487 3.088859,-3.99705 3.67499,-9.96411 0.291185,-14.05205 -0.0053,-0.0118 -0.01108,-0.013 -0.01636,-0.02 -2.243551,-2.82984 -6.740642,-3.23329 -9.340806,-0.63789 -0.03134,0.0318 -0.06737,0.0566 -0.09816,0.0884 -0.206924,0.16631 -0.402819,0.34369 -0.592184,0.52674 -0.179489,-0.25624 -0.37045,-0.508 -0.582369,-0.74915 l -0.04254,-0.046 -0.04254,-0.0389 c -4.556613,-3.97466 -12.303544,-2.46787 -15.141593,2.82677 -0.01929,0.0354 -0.04333,0.0684 -0.06216,0.1049 -0.173332,0.25377 -0.335967,0.51425 -0.484217,0.78192 -0.698207,-2.70077 -2.467811,-5.14011 -5.270767,-6.17368 l -0.0229,-0.0118 -0.02618,-0.0118 c -0.842168,-0.25659 -1.696882,-0.37882 -2.545411,-0.38283 z m -0.0066,1.82892 c 0.671042,0 1.343211,0.0849 1.999031,0.28134 2.295708,0.85724 3.736617,2.93474 4.230354,5.33955 0.493796,2.40504 -0.01565,5.0602 -1.518085,6.8804 -2.320336,2.39231 -5.453424,3.77971 -8.745351,4.21404 -2.258742,-1.7193 -3.926219,-4.21334 -4.364495,-6.99826 l -0.0066,-0.0295 -0.0066,-0.0295 c -1.082733,-4.83767 3.652144,-9.62148 8.411633,-9.65813 z m 17.435081,0.64779 c 1.784449,0.0118 3.53754,0.56021 4.887973,1.71765 0.26292,0.30504 0.486921,0.6274 0.687065,0.9619 -1.10195,1.63633 -1.704465,3.60445 -1.750379,5.57174 -0.03523,1.5095 0.269177,3.03315 0.929173,4.39073 -0.182543,0.27415 -0.372276,0.54135 -0.575826,0.7917 -1.68929,1.98297 -3.847055,3.42965 -6.232657,4.38413 -0.941526,-0.20851 -1.867966,-0.48302 -2.771159,-0.83755 -2.237018,-1.06963 -3.612781,-3.20783 -4.086399,-5.64046 -0.474851,-2.43887 6.28e-4,-5.1235 1.380673,-7.08985 l 0.03272,-0.0495 0.02944,-0.0519 c 1.376036,-2.65481 4.46378,-4.16301 7.469373,-4.14852 z m 12.131597,0.72958 c 1.26581,0.0908 2.506316,0.65828 3.284822,1.64894 l 0.0066,0.0118 0.0098,0.0118 c 3.212159,3.85997 1.94623,10.11698 -1.763465,13.29629 -1.830956,0.046 -3.579196,-0.33368 -5.136626,-1.37089 l -0.0033,0 -0.0033,0 c -0.686479,-0.44884 -1.234102,-1.01424 -1.671857,-1.65224 0.837304,-1.53343 1.385151,-3.2551 1.537715,-5.00905 0.140208,-1.61182 -0.06184,-3.2591 -0.687064,-4.77014 0.274864,-0.30916 0.566252,-0.60206 0.889912,-0.85394 l 0.05234,-0.0389 0.0458,-0.0495 c 0.880308,-0.91958 2.172784,-1.30465 3.438594,-1.21377 z m -5.702636,4.12565 c 0.184568,0.85111 0.235603,1.7404 0.157043,2.64361 -0.08723,1.00291 -0.335547,2.01043 -0.706695,2.9675 -0.173756,-0.69788 -0.259481,-1.42806 -0.242109,-2.1725 0.02757,-1.18113 0.304076,-2.36639 0.791761,-3.43861 z m -17.042473,7.139 c 0.622344,2.77774 2.291886,5.33259 5.028658,6.63182 l 0.02618,0.013 0.02944,0.0118 c 0.107458,0.0424 0.216015,0.0778 0.323902,0.11787 -3.336266,0.70554 -6.897788,0.58391 -10.148924,-0.30421 l -0.07852,-0.0236 -0.0818,-0.0118 c -1.23156,-0.10608 -2.440142,-0.43457 -3.576006,-0.94552 2.884205,-0.74078 5.572376,-2.19678 7.701666,-4.40711 l 0.0229,-0.0224 0.0229,-0.0259 c 0.272733,-0.32791 0.510314,-0.67761 0.729597,-1.0371 z m 16.417571,2.29013 c 0.482665,0.58166 1.053591,1.10463 1.724205,1.54427 0.0026,0 0.0039,0 0.0066,0.0118 l 0,0 c 1.012495,0.67313 2.093104,1.10935 3.199757,1.37089 -3.117761,0.8194 -6.379759,1.27283 -9.560012,1.06657 1.634052,-0.96131 3.125355,-2.18063 4.397214,-3.67741 l 0.0066,-0.0118 0.0066,-0.0118 c 0.07644,-0.0943 0.145359,-0.1946 0.219206,-0.29113 z" fill="#000000" fill-opacity="1" stroke="none" marker="none" visibility="visible" display="inline" overflow="visible"/></g></svg>