<svg width="100" height="100" viewBox="0 0 100 100" fill="none" xmlns="http://www.w3.org/2000/svg">
<circle cx="50" cy="50" r="50" fill="url(#paint0_linear)"/>
<path d="M38 27.2L63 24V56H38V27.2Z" fill="url(#paint1_linear)"/>
<path d="M61.5 8H76.5V50.5C76.5 56.3333 75.1667 60.5833 72.5 63.25C69.8889 65.8611 65.6667 67.1667 59.8333 67.1667H40.6667C34.8333 67.1667 30.5833 65.8611 27.9167 63.25C25.3056 60.5833 24 56.3333 24 50.5V8H39V50.5C39 53.8333 40.6667 55.5 44 55.5H56.5C59.8333 55.5 61.5 53.8333 61.5 50.5V8Z" fill="white"/>
<path d="M15.975 81.375C20.5417 81.625 23.6333 81.75 25.25 81.75C25.6333 81.75 25.9333 81.6417 26.15 81.425C26.3833 81.1917 26.5 80.8833 26.5 80.5V78.25H20.75C19 78.25 17.725 77.8583 16.925 77.075C16.1417 76.275 15.75 75 15.75 73.25V72.5C15.75 70.75 16.1417 69.4833 16.925 68.7C17.725 67.9 19 67.5 20.75 67.5H29.525V71H21.75C20.75 71 20.25 71.5 20.25 72.5V73C20.25 74 20.75 74.5 21.75 74.5H26.25C27.8833 74.5 29.0833 74.8833 29.85 75.65C30.6167 76.4167 31 77.6167 31 79.25V80.5C31 82.1333 30.6167 83.3333 29.85 84.1C29.0833 84.8667 27.8833 85.25 26.25 85.25C25.4 85.25 24.5 85.2333 23.55 85.2L21.25 85.1C19.55 85.0167 17.7917 84.9 15.975 84.75V81.375Z" fill="black"/>
<path d="M46.498 81.25C46.498 82.5 46.1397 83.4833 45.423 84.2C44.723 84.9 43.748 85.25 42.498 85.25H36.748C35.498 85.25 34.5147 84.9 33.798 84.2C33.098 83.4833 32.748 82.5 32.748 81.25V75.5C32.748 74.25 33.098 73.275 33.798 72.575C34.5147 71.8583 35.498 71.5 36.748 71.5H42.498C43.748 71.5 44.723 71.8583 45.423 72.575C46.1397 73.275 46.498 74.25 46.498 75.5V81.25ZM42.123 75.875C42.123 75.2083 41.7897 74.875 41.123 74.875H38.123C37.4564 74.875 37.123 75.2083 37.123 75.875V80.875C37.123 81.5417 37.4564 81.875 38.123 81.875H41.123C41.7897 81.875 42.123 81.5417 42.123 80.875V75.875Z" fill="black"/>
<path d="M57.6201 75.75C57.6201 75.5 57.5368 75.2917 57.3701 75.125C57.2034 74.9583 56.9951 74.875 56.7451 74.875H56.1201C55.4201 74.875 54.8118 74.9083 54.2951 74.975C53.7951 75.0417 53.4034 75.0917 53.1201 75.125V81.625H56.6201C57.2868 81.625 57.6201 81.2917 57.6201 80.625V75.75ZM53.1201 72C54.7368 71.6667 56.1534 71.5 57.3701 71.5H58.2451C59.3784 71.5 60.2868 71.8417 60.9701 72.525C61.6534 73.2083 61.9951 74.1167 61.9951 75.25V81C61.9951 82.25 61.6368 83.2333 60.9201 83.95C60.2201 84.65 59.2451 85 57.9951 85H48.7451V67.5H53.1201V72Z" fill="black"/>
<path d="M69.373 74.625C68.7064 74.625 68.373 74.9583 68.373 75.625V77H72.623V75.625C72.623 74.9583 72.2897 74.625 71.623 74.625H69.373ZM76.498 84.75C73.2814 85.0833 70.3647 85.25 67.748 85.25C66.6147 85.25 65.7064 84.9083 65.023 84.225C64.3397 83.5417 63.998 82.6333 63.998 81.5V75.5C63.998 74.25 64.348 73.275 65.048 72.575C65.7647 71.8583 66.748 71.5 67.998 71.5H72.998C74.248 71.5 75.223 71.8583 75.923 72.575C76.6397 73.275 76.998 74.25 76.998 75.5V80.125H68.373V81.125C68.373 81.375 68.4564 81.5833 68.623 81.75C68.7897 81.9167 68.998 82 69.248 82C70.898 82 73.3147 81.875 76.498 81.625V84.75Z" fill="black"/>
<path d="M86.8633 75.375C85.8133 75.375 84.7299 75.625 83.6133 76.125V85H79.2383V71.75H83.1133L83.3633 73.375C84.7966 72.125 86.2966 71.5 87.8633 71.5H88.9883V75.375H86.8633Z" fill="black"/>
<circle cx="45.5" cy="38.5" r="1" stroke="#F5EAEA"/>
<circle cx="54" cy="31" r="2.5" stroke="#F5EAEA"/>
<circle cx="50" cy="47" r="1" fill="#C4C4C4"/>
<defs>
<linearGradient id="paint0_linear" x1="50" y1="0" x2="50" y2="100" gradientUnits="userSpaceOnUse">
<stop stop-color="#283C86" stop-opacity="0.78"/>
<stop offset="1" stop-color="#8449FF" stop-opacity="0.78"/>
</linearGradient>
<linearGradient id="paint1_linear" x1="50.5" y1="24" x2="50.5" y2="86.9333" gradientUnits="userSpaceOnUse">
<stop stop-color="#FF7E35" stop-opacity="0.86"/>
<stop offset="1" stop-color="#C48D00" stop-opacity="0"/>
<stop offset="1" stop-color="#FE6B00"/>
</linearGradient>
</defs>
</svg>
