<svg xmlns="http://www.w3.org/2000/svg" xmlns:xlink="http://www.w3.org/1999/xlink" version="1.1" x="0px" y="0px" viewBox="0 0 100 125" enable-background="new 0 0 100 100" xml:space="preserve"><circle cx="50" cy="10" r="9"/><path d="M90.697,14.485c-0.869-2.11-2.958-2.996-5.043-2.252L58.307,22H41.693l-27.348-9.767c-2.085-0.743-4.174,0.142-5.043,2.252  s0.009,4.212,2.013,5.143L39,32.481L39.021,57c0,1.014,0.073,3.017,0.359,5.018l4.646,32.495c0.364,2.753,2.74,4.744,5.487,4.461  s4.674-2.724,4.46-5.487l-1.792-32.349l9.455-4.298l-3.487,13.947c-0.67,2.679,0.959,5.394,3.638,6.063  c0.407,0.102,0.815,0.15,1.217,0.15c2.24,0,4.279-1.517,4.847-3.788l6-24c0.466-1.862-0.176-3.826-1.65-5.055  c-0.921-0.768-2.066-1.163-3.223-1.157c-0.694,0.003-1.323,0.178-2.008,0.333L61,44.691V32.481l27.685-12.854  C90.688,18.698,91.566,16.596,90.697,14.485z"/></svg>