
<svg xmlns="http://www.w3.org/2000/svg" xmlns:xlink="http://www.w3.org/1999/xlink" version="1.1" x="0px" y="0px" viewBox="0 0 100 125" style="enable-background:new 0 0 100 100;" xml:space="preserve"><g><path d="M50,0C22.386,0,0,22.386,0,50s22.386,50,50,50s50-22.386,50-50S77.614,0,50,0z M79.645,78.268   c-14.236,14.929-37.048,16.754-53.373,5.124l8.49-8.489c-0.561-0.633-0.932-1.414-0.932-2.383c0-2.044,1.657-3.584,4.925-4.579   c1.09-0.331,2.379-0.61,3.796-0.828l2.429-2.43V57.95c-2.774-0.903-5.191-2.527-7.061-4.632L16.984,74.254   C5.417,58.547,6.429,36.338,20.356,21.732C34.745,6.644,57.896,4.938,74.253,16.985l-8.083,8.082v17.516   c0,0.315-0.012,0.629-0.03,0.94l17.253-17.253C94.557,41.944,93.417,63.824,79.645,78.268z M63.729,42.583V23.982H36.271v18.601   c0,6.7,4.802,12.271,11.15,13.479v13.022c-6.348,0.308-11.15,1.727-11.15,3.436c0,1.932,6.146,3.498,13.728,3.498   c7.583,0,13.729-1.566,13.729-3.498c0-1.709-4.801-3.128-11.15-3.436V56.062C58.928,54.854,63.729,49.283,63.729,42.583z    M38.559,37.933V26.419h22.882v11.514H38.559z"/></g></svg>