<svg xmlns="http://www.w3.org/2000/svg" data-name="Layer 2" viewBox="0 0 100 125" x="0px" y="0px"><title>Artboard 97</title><path d="M73.38,8.5H41.11a4.19,4.19,0,0,0-4.19,4.19V52.86A20.77,20.77,0,0,0,30.77,56C27.9,58,25.7,64.26,24.05,75c-1.17,7.64-1.62,14.85-1.62,14.92a1.5,1.5,0,0,0,1.5,1.59h13.2a1.5,1.5,0,0,0,1.5-1.5V86.07c.81-.6,2.42-1.83,4.93-3.89a16.25,16.25,0,0,0,3.18-3.45H73.38a4.19,4.19,0,0,0,4.19-4.19V12.69A4.19,4.19,0,0,0,73.38,8.5Zm-32.27,3H73.38a1.19,1.19,0,0,1,1.19,1.19V18.5H39.92V12.69A1.19,1.19,0,0,1,41.11,11.5ZM74.57,68.35H53.86l.66-.71c1.47-1.58,3-3.2,2.91-4.94H69.84a1.5,1.5,0,0,0,1.5-1.5V49.92a5.12,5.12,0,0,0-3.7-4.9l-2.91-.83a13.64,13.64,0,0,0,1.21-6,17.71,17.71,0,0,0-.11-1.92s0,0,0-.07,0-.15,0-.23,0-.19,0-.29q-.06-.41-.14-.8l0-.2q-.1-.44-.22-.85l0-.1a8.26,8.26,0,0,0-3.63-4.91l-.09-.05q-.31-.18-.64-.32l-.17-.07-.61-.23L60,28.08l-.61-.15-.26-.06-.65-.09-.26,0c-.31,0-.62,0-.95,0a10.3,10.3,0,0,0-1.31.09l-.35,0a8.76,8.76,0,0,0-1.09.24l-.31.1a7.74,7.74,0,0,0-.81.33l-.43.22c-.21.12-.41.25-.61.39a7.27,7.27,0,0,0-.61.48c-.14.12-.27.24-.4.37s-.28.29-.41.45-.24.31-.36.47a8.44,8.44,0,0,0-.51.79c-.1.17-.19.35-.28.53s-.17.36-.25.55a11,11,0,0,0-.38,1.07l0,.13a1.5,1.5,0,0,0,0,.16,15.57,15.57,0,0,0-.51,4.08,13.81,13.81,0,0,0,1.2,6l-2.9.83a5.12,5.12,0,0,0-3.7,4.9V61.2a1.5,1.5,0,0,0,1.5,1.5H45c-.22.24-.45.49-.66.75a6.82,6.82,0,0,1-4.44,2.49V21.5H74.57ZM49.24,56.1a1.5,1.5,0,0,0-1.5,1.5v2.1h-1.6V49.92a2.11,2.11,0,0,1,1.52-2l4-1.14a9,9,0,0,0,11.15,0l4,1.15a2.11,2.11,0,0,1,1.52,2V59.7h-1.6V57.6a1.5,1.5,0,0,0-3,0v2.1H55.51a5.22,5.22,0,0,0-3.37-1,7.13,7.13,0,0,0-1.39.24V57.6A1.5,1.5,0,0,0,49.24,56.1Zm3-22c.07-.19.15-.36.23-.53s.11-.24.18-.35l.09-.15a4.64,4.64,0,0,1,2.94-2.18l.14,0a6,6,0,0,1,.61-.11,7.64,7.64,0,0,1,.86-.05,7.32,7.32,0,0,1,.81,0l.19,0c.19,0,.38.06.55.1l.17,0a5.2,5.2,0,0,1,.51.16l.13.06.31.15h-.05a1.5,1.5,0,0,0-1,.63A6,6,0,0,1,55,34.38l-2.5.46-.36-.65ZM51.72,38,52,38l3.56-.66a9,9,0,0,0,4.69-2.44l2.66,2.23c0,.36,0,.73,0,1.08,0,3.42-1,7.5-5.7,7.5A5,5,0,0,1,53.13,44a9.16,9.16,0,0,1-1.58-5.78c0-.07,0-.14,0-.2ZM41.66,79.86c-3.67,3-5.38,4.21-5.39,4.22a1.5,1.5,0,0,0-.64,1.23v3.2H25.53c.78-10.84,3.22-27.38,7-30.09A18.73,18.73,0,0,1,36.92,56V67.48h0A1.49,1.49,0,0,0,37,68v0a1.49,1.49,0,0,0,.25.41l0,0a1.5,1.5,0,0,0,.37.29l.06,0a1.48,1.48,0,0,0,.46.15h0a9.91,9.91,0,0,0,8.45-3.63,11.55,11.55,0,0,1,3.37-2.88h0a5.42,5.42,0,0,1,2.21-.7,2.2,2.2,0,0,1,1.77.63c.51.51.65.65-1.74,3.22-.85.91-1.89,2-2.93,3.39l0,0-.24.31a45,45,0,0,0-3.26,5.1A16.75,16.75,0,0,1,41.66,79.86Zm31.72-4.13H48.57a42.35,42.35,0,0,1,2.79-4.38H74.57v3.19A1.19,1.19,0,0,1,73.38,75.73ZM55.24,15.51v-1A1.49,1.49,0,0,1,56.73,13h1a1.49,1.49,0,0,1,1.49,1.49v1A1.49,1.49,0,0,1,57.76,17h-1A1.49,1.49,0,0,1,55.24,15.51Zm6.19,58a1.5,1.5,0,0,1-1.5,1.5H54.56a1.5,1.5,0,0,1,0-3h5.38A1.5,1.5,0,0,1,61.43,73.54Z"/></svg>