<svg xmlns:dc="http://purl.org/dc/elements/1.1/" xmlns:cc="http://creativecommons.org/ns#" xmlns:rdf="http://www.w3.org/1999/02/22-rdf-syntax-ns#" xmlns:svg="http://www.w3.org/2000/svg" xmlns="http://www.w3.org/2000/svg" xmlns:sodipodi="http://sodipodi.sourceforge.net/DTD/sodipodi-0.dtd" xmlns:inkscape="http://www.inkscape.org/namespaces/inkscape" version="1.1" x="0px" y="0px" viewBox="0 0 100 125"><g transform="translate(0,-952.36218)"><path style="text-indent:0;text-transform:none;direction:ltr;block-progression:tb;baseline-shift:baseline;color:#000000;enable-background:accumulate;" d="M 43 8 C 33.082561 8 25 16.08256 25 26 C 25 33.048046 29.073404 39.174076 35 42.125 L 35 51.625 L 34.8125 51.1875 A 2.0002 2.0002 0 0 0 34.75 51.03125 C 32.96771 47.72475 30.992355 45.8682 28.75 45.25 C 26.507645 44.6318 24.46324 45.40231 23 46.25 A 2.0002 2.0002 0 0 0 22.90625 46.3125 C 21.290036 47.39032 19.808873 48.78465 19.25 50.78125 C 18.691127 52.77795 19.062208 54.98335 20.125 57.71875 A 2.0002 2.0002 0 0 0 20.15625 57.78125 L 23.15625 64.78125 A 2.0002 2.0002 0 0 0 23.1875 64.84375 C 28.881226 76.83305 34.351502 85.13865 39.46875 91.28125 A 2.0002 2.0002 0 0 0 41 92 L 68 92 A 2.0002 2.0002 0 0 0 69.1875 91.59375 C 74.87213 87.38255 78.919763 77.5689 80.4375 68.25 C 81.196368 63.5905 81.278551 59.0536 80.15625 55.3125 C 79.033949 51.5714 76.304612 48.4783 72.21875 48 A 2.0002 2.0002 0 0 0 72 48 C 71.2912 48 70.395575 48.03195 69.46875 48.21875 C 69.41947 48.22875 69.362165 48.24 69.3125 48.25 C 68.799612 47.02662 68.109949 45.9764 67.21875 45.34375 C 65.723736 44.28246 64.201394 43.97967 62.96875 44 C 61.799441 44.0196 60.697991 44.40268 59.75 45.0625 C 59.323176 44.41748 58.869619 43.77974 58.3125 43.375 C 56.830235 42.29814 55.252555 42 54 42 C 52.963812 42 51.960894 42.25599 51 42.65625 C 50.999729 42.482723 51.000251 42.301651 51 42.125 C 56.926596 39.174076 61 33.048046 61 26 C 61 16.08256 52.917439 8 43 8 z M 43 12 C 50.755681 12 57 18.24432 57 26 C 57 30.768883 54.624859 34.976706 51 37.5 C 50.998085 33.353564 50.995098 28.877801 51 26 C 51.0078 21.56766 47.405766 18 43 18 C 38.59422 18 35 21.57181 35 26 L 35 37.5 C 31.375141 34.976706 29 30.768883 29 26 C 29 18.24432 35.244319 12 43 12 z M 43 22 C 45.358294 22 47.004186 23.59455 47 25.96875 C 46.991 31.21631 46.97278 42.07618 47 47 A 2.0002 2.0002 0 0 0 50.8125 47.84375 C 51.254736 46.92433 52.91862 46 54 46 C 54.485345 46 55.386295 46.1706 55.96875 46.59375 C 56.551205 47.0169 57 47.5434 57 49 A 2.0002 2.0002 0 0 0 60.78125 49.875 C 61.594618 48.2479 62.030081 48.0168 63.03125 48 C 63.308276 48 64.279482 48.14875 64.90625 48.59375 C 65.533018 49.03865 66 49.5815 66 51 A 2.0002 2.0002 0 0 0 69.34375 52.4375 C 69.29572 52.4825 69.693403 52.26825 70.25 52.15625 C 70.777015 52.05035 71.419606 52.0047 71.90625 52 C 74.270536 52.3339 75.490719 53.72935 76.3125 56.46875 C 77.153808 59.27315 77.195378 63.32405 76.5 67.59375 C 75.150029 75.88255 70.886786 84.894 67.15625 88 L 42.03125 88 C 37.299696 82.2113 32.220506 74.4979 26.84375 63.1875 C 26.83306 63.1645 26.82319 63.147 26.8125 63.125 L 23.875 56.25 C 23.86421 56.222 23.85431 56.2145 23.84375 56.1875 C 22.964531 53.8976 22.885886 52.58635 23.09375 51.84375 C 23.301544 51.10135 23.849373 50.5233 25.09375 49.6875 C 25.10911 49.6775 25.10941 49.66625 25.125 49.65625 C 26.098484 49.11225 26.911971 48.87985 27.6875 49.09375 C 28.494159 49.31605 29.735599 50.17275 31.21875 52.90625 C 31.22795 52.92325 31.24078 52.9205 31.25 52.9375 L 35.15625 61.8125 A 2.0002 2.0002 0 0 0 39 61 L 39 26 C 39 23.62165 40.64168 22 43 22 z " transform="translate(0,952.36218)" fill="#000000" fill-opacity="1" stroke="none" marker="none" visibility="visible" display="inline" overflow="visible"/></g></svg>